<mxfile host="app.diagrams.net" modified="2020-09-19T00:27:48.973Z" agent="5.0 (X11; Linux x86_64) AppleWebKit/537.36 (KHTML, like Gecko) Chrome/85.0.4183.102 Safari/537.36" etag="DAUSu7JKiDsqgj3z-F9R" version="13.7.3" type="github">
  <diagram id="HmePtPXCpKLGKGKJF9h8" name="Page-1">
    <mxGraphModel dx="1824" dy="1000" grid="1" gridSize="10" guides="1" tooltips="1" connect="1" arrows="1" fold="1" page="1" pageScale="1" pageWidth="850" pageHeight="1100" math="0" shadow="0">
      <root>
        <mxCell id="0" />
        <mxCell id="1" parent="0" />
        <mxCell id="ePyfuxbfB_I1OFZZbDPf-1" value="VPC" style="outlineConnect=0;gradientColor=none;html=1;whiteSpace=wrap;fontSize=12;fontStyle=0;shape=mxgraph.aws4.group;grIcon=mxgraph.aws4.group_vpc;strokeColor=#879196;fillColor=none;verticalAlign=top;align=left;spacingLeft=30;fontColor=#879196;dashed=0;" vertex="1" parent="1">
          <mxGeometry x="180" y="60" width="490" height="990" as="geometry" />
        </mxCell>
        <mxCell id="ePyfuxbfB_I1OFZZbDPf-2" value="Web Subnet" style="outlineConnect=0;gradientColor=none;html=1;whiteSpace=wrap;fontSize=12;fontStyle=0;shape=mxgraph.aws4.group;grIcon=mxgraph.aws4.group_vpc;strokeColor=#879196;fillColor=none;verticalAlign=top;align=left;spacingLeft=30;fontColor=#879196;dashed=0;" vertex="1" parent="1">
          <mxGeometry x="215" y="120" width="420" height="180" as="geometry" />
        </mxCell>
        <mxCell id="ePyfuxbfB_I1OFZZbDPf-3" value="App Subnet" style="outlineConnect=0;gradientColor=none;html=1;whiteSpace=wrap;fontSize=12;fontStyle=0;shape=mxgraph.aws4.group;grIcon=mxgraph.aws4.group_vpc;strokeColor=#879196;fillColor=none;verticalAlign=top;align=left;spacingLeft=30;fontColor=#879196;dashed=0;" vertex="1" parent="1">
          <mxGeometry x="215" y="340" width="420" height="360" as="geometry" />
        </mxCell>
        <mxCell id="ePyfuxbfB_I1OFZZbDPf-4" value="DB Subnet" style="outlineConnect=0;gradientColor=none;html=1;whiteSpace=wrap;fontSize=12;fontStyle=0;shape=mxgraph.aws4.group;grIcon=mxgraph.aws4.group_vpc;strokeColor=#879196;fillColor=none;verticalAlign=top;align=left;spacingLeft=30;fontColor=#879196;dashed=0;" vertex="1" parent="1">
          <mxGeometry x="215" y="760" width="420" height="240" as="geometry" />
        </mxCell>
        <mxCell id="ePyfuxbfB_I1OFZZbDPf-24" style="edgeStyle=orthogonalEdgeStyle;rounded=0;orthogonalLoop=1;jettySize=auto;html=1;entryX=0.5;entryY=0;entryDx=0;entryDy=0;" edge="1" parent="1" source="ePyfuxbfB_I1OFZZbDPf-5" target="ePyfuxbfB_I1OFZZbDPf-16">
          <mxGeometry relative="1" as="geometry" />
        </mxCell>
        <mxCell id="ePyfuxbfB_I1OFZZbDPf-25" style="edgeStyle=orthogonalEdgeStyle;rounded=0;orthogonalLoop=1;jettySize=auto;html=1;entryX=0.5;entryY=0;entryDx=0;entryDy=0;" edge="1" parent="1">
          <mxGeometry relative="1" as="geometry">
            <mxPoint x="425.0000000000002" y="247.17000000000007" as="sourcePoint" />
            <mxPoint x="515.0000000000002" y="401" as="targetPoint" />
            <Array as="points">
              <mxPoint x="425" y="324" />
              <mxPoint x="515" y="324" />
            </Array>
          </mxGeometry>
        </mxCell>
        <mxCell id="ePyfuxbfB_I1OFZZbDPf-26" value="" style="edgeStyle=orthogonalEdgeStyle;rounded=0;orthogonalLoop=1;jettySize=auto;html=1;" edge="1" parent="1" source="ePyfuxbfB_I1OFZZbDPf-5" target="ePyfuxbfB_I1OFZZbDPf-3">
          <mxGeometry relative="1" as="geometry" />
        </mxCell>
        <mxCell id="ePyfuxbfB_I1OFZZbDPf-27" value="" style="edgeStyle=orthogonalEdgeStyle;rounded=0;orthogonalLoop=1;jettySize=auto;html=1;" edge="1" parent="1" source="ePyfuxbfB_I1OFZZbDPf-5" target="ePyfuxbfB_I1OFZZbDPf-3">
          <mxGeometry relative="1" as="geometry" />
        </mxCell>
        <mxCell id="ePyfuxbfB_I1OFZZbDPf-5" value="ALB" style="verticalLabelPosition=bottom;html=1;verticalAlign=top;strokeWidth=1;align=center;outlineConnect=0;dashed=0;outlineConnect=0;shape=mxgraph.aws3d.elasticLoadBalancing;fillColor=#ECECEC;strokeColor=#5E5E5E;aspect=fixed;" vertex="1" parent="1">
          <mxGeometry x="379" y="160" width="92" height="88.17" as="geometry" />
        </mxCell>
        <mxCell id="ePyfuxbfB_I1OFZZbDPf-8" value="" style="rounded=0;whiteSpace=wrap;html=1;fillColor=none;labelPosition=left;verticalLabelPosition=top;align=right;verticalAlign=bottom;" vertex="1" parent="1">
          <mxGeometry x="240" y="384" width="370" height="166" as="geometry" />
        </mxCell>
        <mxCell id="ePyfuxbfB_I1OFZZbDPf-9" value="ECS&lt;br&gt;Cluster" style="outlineConnect=0;fontColor=#232F3E;gradientColor=#F78E04;gradientDirection=north;fillColor=#D05C17;strokeColor=#ffffff;dashed=0;verticalLabelPosition=bottom;verticalAlign=top;align=center;html=1;fontSize=12;fontStyle=0;aspect=fixed;shape=mxgraph.aws4.resourceIcon;resIcon=mxgraph.aws4.ecs;" vertex="1" parent="1">
          <mxGeometry x="241" y="385" width="40" height="40" as="geometry" />
        </mxCell>
        <mxCell id="ePyfuxbfB_I1OFZZbDPf-22" style="edgeStyle=orthogonalEdgeStyle;rounded=0;orthogonalLoop=1;jettySize=auto;html=1;exitX=0.5;exitY=1;exitDx=0;exitDy=0;" edge="1" parent="1" source="ePyfuxbfB_I1OFZZbDPf-16" target="ePyfuxbfB_I1OFZZbDPf-18">
          <mxGeometry relative="1" as="geometry">
            <Array as="points">
              <mxPoint x="364" y="780" />
              <mxPoint x="320" y="780" />
            </Array>
          </mxGeometry>
        </mxCell>
        <mxCell id="ePyfuxbfB_I1OFZZbDPf-30" style="edgeStyle=orthogonalEdgeStyle;rounded=0;orthogonalLoop=1;jettySize=auto;html=1;exitX=0.75;exitY=1;exitDx=0;exitDy=0;" edge="1" parent="1" source="ePyfuxbfB_I1OFZZbDPf-16" target="ePyfuxbfB_I1OFZZbDPf-29">
          <mxGeometry relative="1" as="geometry" />
        </mxCell>
        <mxCell id="ePyfuxbfB_I1OFZZbDPf-16" value="WordPress&lt;br&gt;Container&lt;br&gt;-------------------------------&lt;br&gt;&lt;ul&gt;&lt;li&gt;Alpine Linux&lt;/li&gt;&lt;li&gt;Nginx&lt;/li&gt;&lt;li&gt;EFS Mount Point&lt;/li&gt;&lt;/ul&gt;" style="whiteSpace=wrap;html=1;aspect=fixed;fillColor=none;horizontal=1;verticalAlign=top;align=left;" vertex="1" parent="1">
          <mxGeometry x="299" y="400" width="130" height="130" as="geometry" />
        </mxCell>
        <mxCell id="ePyfuxbfB_I1OFZZbDPf-23" style="edgeStyle=orthogonalEdgeStyle;rounded=0;orthogonalLoop=1;jettySize=auto;html=1;exitX=0.5;exitY=1;exitDx=0;exitDy=0;" edge="1" parent="1" source="ePyfuxbfB_I1OFZZbDPf-17" target="ePyfuxbfB_I1OFZZbDPf-18">
          <mxGeometry relative="1" as="geometry">
            <Array as="points">
              <mxPoint x="515" y="780" />
              <mxPoint x="320" y="780" />
            </Array>
          </mxGeometry>
        </mxCell>
        <mxCell id="ePyfuxbfB_I1OFZZbDPf-31" style="edgeStyle=orthogonalEdgeStyle;rounded=0;orthogonalLoop=1;jettySize=auto;html=1;exitX=0.25;exitY=1;exitDx=0;exitDy=0;entryX=0.5;entryY=0;entryDx=0;entryDy=0;entryPerimeter=0;" edge="1" parent="1" source="ePyfuxbfB_I1OFZZbDPf-17" target="ePyfuxbfB_I1OFZZbDPf-29">
          <mxGeometry relative="1" as="geometry">
            <Array as="points">
              <mxPoint x="483" y="560" />
              <mxPoint x="437" y="560" />
            </Array>
          </mxGeometry>
        </mxCell>
        <mxCell id="ePyfuxbfB_I1OFZZbDPf-17" value="WordPress&lt;br&gt;Container&lt;br&gt;-------------------------------&lt;br&gt;&lt;ul&gt;&lt;li&gt;Alpine Linux&lt;/li&gt;&lt;li&gt;Nginx&lt;/li&gt;&lt;li&gt;EFS Mount Point&lt;/li&gt;&lt;/ul&gt;" style="whiteSpace=wrap;html=1;aspect=fixed;fillColor=none;horizontal=1;verticalAlign=top;align=left;" vertex="1" parent="1">
          <mxGeometry x="450" y="402" width="130" height="130" as="geometry" />
        </mxCell>
        <mxCell id="ePyfuxbfB_I1OFZZbDPf-20" style="edgeStyle=orthogonalEdgeStyle;rounded=0;orthogonalLoop=1;jettySize=auto;html=1;" edge="1" parent="1" source="ePyfuxbfB_I1OFZZbDPf-18" target="ePyfuxbfB_I1OFZZbDPf-19">
          <mxGeometry relative="1" as="geometry" />
        </mxCell>
        <mxCell id="ePyfuxbfB_I1OFZZbDPf-18" value="RDS MySql" style="outlineConnect=0;fontColor=#232F3E;gradientColor=none;fillColor=#3334B9;strokeColor=none;dashed=0;verticalLabelPosition=bottom;verticalAlign=top;align=center;html=1;fontSize=12;fontStyle=0;aspect=fixed;pointerEvents=1;shape=mxgraph.aws4.rds_mysql_instance;" vertex="1" parent="1">
          <mxGeometry x="281" y="841" width="78" height="78" as="geometry" />
        </mxCell>
        <mxCell id="ePyfuxbfB_I1OFZZbDPf-19" value="&lt;font color=&quot;#000000&quot;&gt;OPTIONAL&lt;br&gt;Read replica&lt;br&gt;&lt;/font&gt;" style="outlineConnect=0;dashed=1;verticalLabelPosition=bottom;verticalAlign=top;align=center;html=1;fontSize=12;fontStyle=0;aspect=fixed;pointerEvents=1;shape=mxgraph.aws4.rds_mysql_instance;fillColor=#0050ef;strokeColor=#001DBC;fontColor=#ffffff;" vertex="1" parent="1">
          <mxGeometry x="476" y="841" width="78" height="78" as="geometry" />
        </mxCell>
        <mxCell id="ePyfuxbfB_I1OFZZbDPf-28" value="Route 53" style="outlineConnect=0;dashed=0;verticalLabelPosition=bottom;verticalAlign=top;align=center;html=1;shape=mxgraph.aws3.route_53;fillColor=#F58536;gradientColor=none;" vertex="1" parent="1">
          <mxGeometry x="50" y="320" width="70.5" height="85.5" as="geometry" />
        </mxCell>
        <mxCell id="ePyfuxbfB_I1OFZZbDPf-29" value="EFS Share&lt;br&gt;" style="outlineConnect=0;dashed=0;verticalLabelPosition=bottom;verticalAlign=top;align=center;html=1;shape=mxgraph.aws3.efs_share;fillColor=#E05243;gradientColor=none;" vertex="1" parent="1">
          <mxGeometry x="402" y="590" width="69" height="63" as="geometry" />
        </mxCell>
        <mxCell id="ePyfuxbfB_I1OFZZbDPf-37" style="edgeStyle=orthogonalEdgeStyle;rounded=0;orthogonalLoop=1;jettySize=auto;html=1;exitX=1;exitY=0.5;exitDx=0;exitDy=0;" edge="1" parent="1" source="ePyfuxbfB_I1OFZZbDPf-35" target="ePyfuxbfB_I1OFZZbDPf-5">
          <mxGeometry relative="1" as="geometry" />
        </mxCell>
        <mxCell id="ePyfuxbfB_I1OFZZbDPf-38" value="DNS&lt;br&gt;Resolution" style="edgeStyle=orthogonalEdgeStyle;rounded=0;orthogonalLoop=1;jettySize=auto;html=1;exitX=0.5;exitY=1;exitDx=0;exitDy=0;" edge="1" parent="1" source="ePyfuxbfB_I1OFZZbDPf-35" target="ePyfuxbfB_I1OFZZbDPf-28">
          <mxGeometry relative="1" as="geometry" />
        </mxCell>
        <mxCell id="ePyfuxbfB_I1OFZZbDPf-35" value="" style="image;html=1;image=img/lib/clip_art/people/Construction_Worker_Man_128x128.png;dashed=1;fillColor=none;" vertex="1" parent="1">
          <mxGeometry x="45.25" y="164.09" width="80" height="80" as="geometry" />
        </mxCell>
      </root>
    </mxGraphModel>
  </diagram>
</mxfile>
